<svg id="svg" version="1.1" xmlns="http://www.w3.org/2000/svg" xmlns:xlink="http://www.w3.org/1999/xlink" width="400" height="400" viewBox="0, 0, 400,400"><g id="svgg"><path id="path0" d="M176.222 7.216 C 162.599 22.341,165.479 26.157,189.691 25.060 C 217.450 23.803,216.974 24.285,203.624 10.934 C 190.818 -1.872,185.105 -2.647,176.222 7.216 M158.796 42.708 C 148.464 45.821,141.783 50.530,140.854 55.352 C 139.630 61.707,141.050 62.516,149.069 60.034 C 189.325 47.573,207.239 47.535,236.501 59.847 C 242.572 62.401,243.828 61.458,242.636 55.241 C 239.610 39.460,192.796 32.462,158.796 42.708 M163.588 63.642 C 139.532 70.108,126.518 80.645,137.421 84.829 C 141.230 86.291,151.803 84.503,160.917 80.857 C 181.489 72.625,218.312 72.291,237.156 80.164 C 253.662 87.061,260.384 81.616,246.523 72.577 C 225.515 58.878,193.961 55.478,163.588 63.642 M77.320 93.675 C 65.020 95.538,64.085 97.789,69.630 112.177 C 71.638 117.387,76.304 132.103,79.999 144.880 C 88.551 174.454,99.808 188.701,117.204 191.964 C 131.226 194.595,156.701 185.205,156.701 177.405 C 156.701 175.301,151.182 176.741,144.436 180.604 C 127.968 190.036,114.874 177.505,100.863 138.903 C 91.182 112.234,91.129 111.413,98.799 107.307 C 109.537 101.561,133.331 101.991,139.381 108.041 C 142.958 111.617,144.330 111.682,144.330 108.275 C 144.330 94.272,115.230 87.932,77.320 93.675 M249.823 99.439 C 243.728 104.234,239.722 109.137,240.920 110.336 C 242.119 111.535,245.941 110.158,249.413 107.276 C 254.519 103.038,259.339 103.048,274.627 107.329 L 293.528 112.620 290.737 131.568 C 285.143 169.550,270.184 187.294,251.973 177.548 C 238.997 170.603,236.259 172.758,246.849 181.580 C 272.431 202.893,297.117 186.786,307.252 142.169 C 310.846 126.347,314.679 110.388,315.770 106.704 C 320.136 91.954,266.808 86.079,249.823 99.439 M177.320 115.464 C 177.320 122.268,178.854 127.835,180.729 127.835 C 182.604 127.835,183.322 122.268,182.323 115.464 C 181.324 108.660,179.790 103.093,178.913 103.093 C 178.037 103.093,177.320 108.660,177.320 115.464 M205.306 115.464 C 204.307 122.268,205.025 127.835,206.900 127.835 C 208.775 127.835,210.309 122.268,210.309 115.464 C 210.309 108.660,209.592 103.093,208.715 103.093 C 207.839 103.093,206.305 108.660,205.306 115.464 M212.371 136.082 C 208.266 140.619,206.200 144.330,207.781 144.330 C 209.361 144.330,214.638 140.619,219.507 136.082 C 224.376 131.546,226.441 127.835,224.097 127.835 C 221.753 127.835,216.476 131.546,212.371 136.082 M161.094 146.716 C 166.538 153.276,173.196 154.497,173.196 148.935 C 173.196 146.931,169.378 144.294,164.713 143.073 C 157.752 141.253,157.103 141.907,161.094 146.716 M220.449 144.604 C 218.954 147.023,218.721 149.993,219.931 151.203 C 222.885 154.157,230.928 148.952,230.928 144.087 C 230.928 138.817,223.809 139.168,220.449 144.604 M190.461 215.818 C 192.940 263.054,219.479 300.411,244.335 291.653 C 247.167 290.655,242.990 287.046,235.052 283.633 C 208.351 272.152,197.938 250.829,197.938 207.632 C 197.938 190.977,196.249 181.443,193.297 181.443 C 190.086 181.443,189.212 192.028,190.461 215.818 M225.280 190.722 C 216.627 223.009,225.906 266.980,243.342 276.312 C 253.958 281.993,253.698 278.868,242.268 263.394 C 231.588 248.936,229.568 211.576,238.860 200.380 C 243.222 195.125,243.284 192.580,239.175 187.629 C 232.041 179.032,228.182 179.891,225.280 190.722 M153.235 190.960 C 143.230 203.015,164.584 272.948,184.755 294.183 C 223.818 335.307,284.536 317.293,284.536 264.579 C 284.536 237.789,252.717 224.245,245.226 247.847 C 241.409 259.875,249.399 267.243,259.452 260.964 C 276.390 250.387,276.902 272.186,260.111 288.977 C 228.841 320.247,192.170 293.033,172.154 223.705 C 161.142 185.559,159.736 183.126,153.235 190.960 M299.498 196.916 C 290.348 214.610,291.067 225.134,301.948 232.756 C 314.562 241.591,318.682 240.793,313.213 230.575 C 307.327 219.576,311.478 215.371,321.837 221.841 C 334.825 229.951,332.232 213.053,318.055 197.185 L 306.212 183.932 299.498 196.916 M80.646 198.856 C 72.639 210.288,72.505 222.949,80.198 241.360 C 95.453 277.870,128.965 266.664,131.154 224.322 C 132.556 197.216,127.710 197.380,118.761 224.742 C 112.301 244.493,93.904 249.148,91.426 231.659 C 89.014 214.633,93.686 207.982,102.473 215.934 C 112.765 225.248,116.512 224.374,113.322 213.402 C 107.298 192.688,90.274 185.109,80.646 198.856 M291.171 246.223 C 295.091 262.613,296.265 263.918,307.093 263.918 C 312.895 263.918,321.151 258.738,327.638 251.029 C 340.377 235.889,338.967 231.620,324.383 241.176 C 314.850 247.423,313.017 247.435,301.224 241.337 L 288.418 234.715 291.171 246.223 M141.741 261.743 C 140.349 265.371,140.050 278.478,141.078 290.870 C 143.307 317.749,142.780 318.119,132.098 297.180 C 100.952 236.130,36.360 274.897,66.272 336.687 C 78.447 361.837,95.431 370.945,134.074 373.049 C 167.293 374.857,177.075 378.061,161.676 382.088 C 149.466 385.281,150.194 391.051,163.443 396.088 C 171.662 399.213,176.633 398.696,183.847 393.970 C 189.736 390.111,194.348 389.281,195.905 391.798 C 204.646 405.942,238.284 392.604,232.419 377.320 C 229.532 369.796,224.048 369.279,221.478 376.289 C 220.066 380.139,218.328 380.262,214.611 376.776 C 208.813 371.338,223.125 355.821,251.259 337.041 C 268.151 325.764,275.626 315.489,270.596 310.459 C 269.173 309.036,263.841 311.776,258.747 316.548 C 217.590 355.102,152.577 330.724,152.577 276.737 C 152.577 259.475,146.067 250.468,141.741 261.743 M293.291 273.615 C 289.132 278.627,289.782 280.213,296.926 282.480 C 311.578 287.131,318.834 320.290,309.156 338.373 C 302.385 351.025,281.619 359.352,256.837 359.352 C 224.844 359.352,234.914 368.147,269.423 370.345 C 317.503 373.406,346.721 347.838,340.078 308.517 C 335.351 280.540,305.824 258.513,293.291 273.615 M118.130 302.726 C 124.602 310.463,134.536 323.401,140.206 331.479 C 150.530 346.185,159.574 351.580,155.320 340.493 C 153.908 336.813,158.612 338.364,167.825 344.617 C 175.948 350.129,187.902 354.639,194.390 354.639 C 208.123 354.639,208.449 355.599,199.398 369.412 L 192.611 379.771 181.405 369.036 C 172.977 360.961,163.338 357.329,142.506 354.379 C 99.967 348.354,78.351 333.889,78.351 311.446 C 78.351 285.271,99.625 280.607,118.130 302.726 " stroke="none" fill="#000000" fill-rule="evenodd"></path></g></svg>